<svg width="57" height="26" viewBox="0 0 57 26" fill="none" xmlns="http://www.w3.org/2000/svg">
<path d="M42.4303 24.5425C41.6717 25.3679 40.9131 25.0928 41.189 24.1298C41.6717 22.754 42.4303 21.3783 43.2579 20.1401C45.8785 15.9441 38.8442 14.0181 21.741 14.0869H1.53452C0.15523 14.0869 -1.08613 10.9227 1.53452 10.9227H21.4652C38.5683 10.9227 46.5682 9.34059 44.0854 6.1076C43.051 4.59429 42.0165 3.01219 41.2579 1.3613C40.4993 -0.152009 41.3958 -0.427158 42.6372 0.811007C46.7061 5.00701 51.3267 9.40937 56.2232 11.8857C57.2576 12.3672 57.1887 12.7111 56.43 13.1239C51.4646 15.669 46.844 20.0026 42.4303 24.5425Z" fill="#FFCD9B"/>
</svg>
